<mxfile host="app.diagrams.net" modified="2023-04-05T14:34:00.934Z" agent="Mozilla/5.0 (Windows NT 10.0; Win64; x64) AppleWebKit/537.36 (KHTML, like Gecko) Chrome/110.0.0.0 YaBrowser/23.3.1.806 Yowser/2.5 Safari/537.36" etag="fT9sSYDG3DKKWtKZvuKx" version="21.1.4" type="device">
  <diagram id="vy44sBX6BTg-xz4pO_yx" name="Страница 1">
    <mxGraphModel dx="2273" dy="1420" grid="0" gridSize="10" guides="1" tooltips="1" connect="1" arrows="1" fold="1" page="0" pageScale="1" pageWidth="827" pageHeight="1169" math="0" shadow="0">
      <root>
        <mxCell id="0" />
        <mxCell id="1" parent="0" />
        <mxCell id="rpzFUIByRIfEb65WI8s4-1" value="" style="rounded=0;whiteSpace=wrap;html=1;fontSize=16;" parent="1" vertex="1">
          <mxGeometry x="7" y="-38" width="1273" height="1111" as="geometry" />
        </mxCell>
        <mxCell id="rpzFUIByRIfEb65WI8s4-51" style="edgeStyle=none;curved=1;rounded=0;orthogonalLoop=1;jettySize=auto;html=1;exitX=1;exitY=0.3333333333333333;exitDx=0;exitDy=0;exitPerimeter=0;entryX=0;entryY=0.5;entryDx=0;entryDy=0;fontSize=12;endArrow=open;startSize=14;endSize=14;sourcePerimeterSpacing=8;targetPerimeterSpacing=8;" parent="1" source="rpzFUIByRIfEb65WI8s4-2" target="rpzFUIByRIfEb65WI8s4-11" edge="1">
          <mxGeometry relative="1" as="geometry" />
        </mxCell>
        <mxCell id="rpzFUIByRIfEb65WI8s4-53" style="edgeStyle=none;curved=1;rounded=0;orthogonalLoop=1;jettySize=auto;html=1;exitX=1;exitY=0.3333333333333333;exitDx=0;exitDy=0;exitPerimeter=0;entryX=0;entryY=0.5;entryDx=0;entryDy=0;fontSize=12;endArrow=open;startSize=14;endSize=14;sourcePerimeterSpacing=8;targetPerimeterSpacing=8;" parent="1" source="rpzFUIByRIfEb65WI8s4-2" target="wqfVcWy9UaqfOOaMVZAh-1" edge="1">
          <mxGeometry relative="1" as="geometry">
            <mxPoint x="68.99999999999773" y="505.5" as="targetPoint" />
          </mxGeometry>
        </mxCell>
        <mxCell id="rpzFUIByRIfEb65WI8s4-54" style="edgeStyle=none;curved=1;rounded=0;orthogonalLoop=1;jettySize=auto;html=1;exitX=1;exitY=0.3333333333333333;exitDx=0;exitDy=0;exitPerimeter=0;entryX=0;entryY=0.5;entryDx=0;entryDy=0;fontSize=12;endArrow=open;startSize=14;endSize=14;sourcePerimeterSpacing=8;targetPerimeterSpacing=8;" parent="1" source="rpzFUIByRIfEb65WI8s4-2" target="rpzFUIByRIfEb65WI8s4-25" edge="1">
          <mxGeometry relative="1" as="geometry" />
        </mxCell>
        <mxCell id="rpzFUIByRIfEb65WI8s4-55" style="edgeStyle=none;curved=1;rounded=0;orthogonalLoop=1;jettySize=auto;html=1;exitX=1;exitY=0.3333333333333333;exitDx=0;exitDy=0;exitPerimeter=0;entryX=0;entryY=0.5;entryDx=0;entryDy=0;fontSize=12;endArrow=open;startSize=14;endSize=14;sourcePerimeterSpacing=8;targetPerimeterSpacing=8;" parent="1" source="rpzFUIByRIfEb65WI8s4-2" target="rpzFUIByRIfEb65WI8s4-34" edge="1">
          <mxGeometry relative="1" as="geometry" />
        </mxCell>
        <mxCell id="rpzFUIByRIfEb65WI8s4-57" style="edgeStyle=none;curved=1;rounded=0;orthogonalLoop=1;jettySize=auto;html=1;exitX=1;exitY=0.3333333333333333;exitDx=0;exitDy=0;exitPerimeter=0;entryX=0;entryY=0.5;entryDx=0;entryDy=0;fontSize=12;endArrow=open;startSize=14;endSize=14;sourcePerimeterSpacing=8;targetPerimeterSpacing=8;" parent="1" source="rpzFUIByRIfEb65WI8s4-2" target="rpzFUIByRIfEb65WI8s4-35" edge="1">
          <mxGeometry relative="1" as="geometry" />
        </mxCell>
        <mxCell id="rpzFUIByRIfEb65WI8s4-2" value="Client" style="shape=umlActor;verticalLabelPosition=bottom;verticalAlign=top;html=1;outlineConnect=0;fontSize=16;" parent="1" vertex="1">
          <mxGeometry x="-319" y="456" width="82" height="156" as="geometry" />
        </mxCell>
        <mxCell id="h0mzsO0h4rfy2fg7cK-p-12" style="edgeStyle=orthogonalEdgeStyle;rounded=0;orthogonalLoop=1;jettySize=auto;html=1;exitX=0;exitY=0.3333333333333333;exitDx=0;exitDy=0;exitPerimeter=0;entryX=1;entryY=0.5;entryDx=0;entryDy=0;" parent="1" source="rpzFUIByRIfEb65WI8s4-4" target="h0mzsO0h4rfy2fg7cK-p-6" edge="1">
          <mxGeometry relative="1" as="geometry" />
        </mxCell>
        <mxCell id="h0mzsO0h4rfy2fg7cK-p-13" style="edgeStyle=orthogonalEdgeStyle;rounded=0;orthogonalLoop=1;jettySize=auto;html=1;exitX=0;exitY=0.3333333333333333;exitDx=0;exitDy=0;exitPerimeter=0;entryX=1;entryY=0.5;entryDx=0;entryDy=0;" parent="1" source="rpzFUIByRIfEb65WI8s4-4" target="h0mzsO0h4rfy2fg7cK-p-7" edge="1">
          <mxGeometry relative="1" as="geometry" />
        </mxCell>
        <mxCell id="h0mzsO0h4rfy2fg7cK-p-14" style="edgeStyle=orthogonalEdgeStyle;rounded=0;orthogonalLoop=1;jettySize=auto;html=1;exitX=0;exitY=0.3333333333333333;exitDx=0;exitDy=0;exitPerimeter=0;entryX=1;entryY=0.5;entryDx=0;entryDy=0;" parent="1" source="rpzFUIByRIfEb65WI8s4-4" target="h0mzsO0h4rfy2fg7cK-p-8" edge="1">
          <mxGeometry relative="1" as="geometry" />
        </mxCell>
        <mxCell id="rpzFUIByRIfEb65WI8s4-4" value="Admin" style="shape=umlActor;verticalLabelPosition=bottom;verticalAlign=top;html=1;outlineConnect=0;fontSize=16;" parent="1" vertex="1">
          <mxGeometry x="1388" y="300" width="82" height="156" as="geometry" />
        </mxCell>
        <mxCell id="rpzFUIByRIfEb65WI8s4-10" value="Sign in&lt;span style=&quot;color: rgba(0, 0, 0, 0); font-family: monospace; font-size: 0px; text-align: start;&quot;&gt;%3CmxGraphModel%3E%3Croot%3E%3CmxCell%20id%3D%220%22%2F%3E%3CmxCell%20id%3D%221%22%20parent%3D%220%22%2F%3E%3CmxCell%20id%3D%222%22%20value%3D%22Actor%22%20style%3D%22shape%3DumlActor%3BverticalLabelPosition%3Dbottom%3BverticalAlign%3Dtop%3Bhtml%3D1%3BoutlineConnect%3D0%3BfontSize%3D16%3B%22%20vertex%3D%221%22%20parent%3D%221%22%3E%3CmxGeometry%20x%3D%22-158%22%20y%3D%22217%22%20width%3D%2282%22%20height%3D%22156%22%20as%3D%22geometry%22%2F%3E%3C%2FmxCell%3E%3C%2Froot%3E%3C%2FmxGraphModel%3E&lt;/span&gt;" style="ellipse;whiteSpace=wrap;html=1;fontSize=16;" parent="1" vertex="1">
          <mxGeometry x="101" y="111" width="120" height="80" as="geometry" />
        </mxCell>
        <mxCell id="rpzFUIByRIfEb65WI8s4-11" value="Sign out&lt;span style=&quot;color: rgba(0, 0, 0, 0); font-family: monospace; font-size: 0px; text-align: start;&quot;&gt;%3CmxGraphModel%3E%3Croot%3E%3CmxCell%20id%3D%220%22%2F%3E%3CmxCell%20id%3D%221%22%20parent%3D%220%22%2F%3E%3CmxCell%20id%3D%222%22%20value%3D%22sign%20in%26lt%3Bspan%20style%3D%26quot%3Bcolor%3A%20rgba(0%2C%200%2C%200%2C%200)%3B%20font-family%3A%20monospace%3B%20font-size%3A%200px%3B%20text-align%3A%20start%3B%26quot%3B%26gt%3B%253CmxGraphModel%253E%253Croot%253E%253CmxCell%2520id%253D%25220%2522%252F%253E%253CmxCell%2520id%253D%25221%2522%2520parent%253D%25220%2522%252F%253E%253CmxCell%2520id%253D%25222%2522%2520value%253D%2522Actor%2522%2520style%253D%2522shape%253DumlActor%253BverticalLabelPosition%253Dbottom%253BverticalAlign%253Dtop%253Bhtml%253D1%253BoutlineConnect%253D0%253BfontSize%253D16%253B%2522%2520vertex%253D%25221%2522%2520parent%253D%25221%2522%253E%253CmxGeometry%2520x%253D%2522-158%2522%2520y%253D%2522217%2522%2520width%253D%252282%2522%2520height%253D%2522156%2522%2520as%253D%2522geometry%2522%252F%253E%253C%252FmxCell%253E%253C%252Froot%253E%253C%252FmxGraphModel%253E%26lt%3B%2Fspan%26gt%3B%22%20style%3D%22ellipse%3BwhiteSpace%3Dwrap%3Bhtml%3D1%3BfontSize%3D16%3B%22%20vertex%3D%221%22%20parent%3D%221%22%3E%3CmxGeometry%20x%3D%22101%22%20y%3D%22111%22%20width%3D%22120%22%20height%3D%2280%22%20as%3D%22geometry%22%2F%3E%3C%2FmxCell%3E%3C%2Froot%3E%3C%2FmxGraphModel%3E&lt;/span&gt;&lt;span style=&quot;color: rgba(0, 0, 0, 0); font-family: monospace; font-size: 0px; text-align: start;&quot;&gt;%3CmxGraphModel%3E%3Croot%3E%3CmxCell%20id%3D%220%22%2F%3E%3CmxCell%20id%3D%221%22%20parent%3D%220%22%2F%3E%3CmxCell%20id%3D%222%22%20value%3D%22sign%20in%26lt%3Bspan%20style%3D%26quot%3Bcolor%3A%20rgba(0%2C%200%2C%200%2C%200)%3B%20font-family%3A%20monospace%3B%20font-size%3A%200px%3B%20text-align%3A%20start%3B%26quot%3B%26gt%3B%253CmxGraphModel%253E%253Croot%253E%253CmxCell%2520id%253D%25220%2522%252F%253E%253CmxCell%2520id%253D%25221%2522%2520parent%253D%25220%2522%252F%253E%253CmxCell%2520id%253D%25222%2522%2520value%253D%2522Actor%2522%2520style%253D%2522shape%253DumlActor%253BverticalLabelPosition%253Dbottom%253BverticalAlign%253Dtop%253Bhtml%253D1%253BoutlineConnect%253D0%253BfontSize%253D16%253B%2522%2520vertex%253D%25221%2522%2520parent%253D%25221%2522%253E%253CmxGeometry%2520x%253D%2522-158%2522%2520y%253D%2522217%2522%2520width%253D%252282%2522%2520height%253D%2522156%2522%2520as%253D%2522geometry%2522%252F%253E%253C%252FmxCell%253E%253C%252Froot%253E%253C%252FmxGraphModel%253E%26lt%3B%2Fspan%26gt%3B%22%20style%3D%22ellipse%3BwhiteSpace%3Dwrap%3Bhtml%3D1%3BfontSize%3D16%3B%22%20vertex%3D%221%22%20parent%3D%221%22%3E%3CmxGeometry%20x%3D%22101%22%20y%3D%22111%22%20width%3D%22120%22%20height%3D%2280%22%20as%3D%22geometry%22%2F%3E%3C%2FmxCell%3E%3C%2Froot%3E%3C%2FmxGraphModel%3E&lt;/span&gt;&lt;br&gt;&lt;span style=&quot;color: rgba(0, 0, 0, 0); font-family: monospace; font-size: 0px; text-align: start;&quot;&gt;%3CmxGraphModel%3E%3Croot%3E%3CmxCell%20id%3D%220%22%2F%3E%3CmxCell%20id%3D%221%22%20parent%3D%220%22%2F%3E%3CmxCell%20id%3D%222%22%20value%3D%22Actor%22%20style%3D%22shape%3DumlActor%3BverticalLabelPosition%3Dbottom%3BverticalAlign%3Dtop%3Bhtml%3D1%3BoutlineConnect%3D0%3BfontSize%3D16%3B%22%20vertex%3D%221%22%20parent%3D%221%22%3E%3CmxGeometry%20x%3D%22-158%22%20y%3D%22217%22%20width%3D%2282%22%20height%3D%22156%22%20as%3D%22geometry%22%2F%3E%3C%2FmxCell%3E%3C%2Froot%3E%3C%2FmxGraphModel%3E&lt;/span&gt;" style="ellipse;whiteSpace=wrap;html=1;fontSize=16;" parent="1" vertex="1">
          <mxGeometry x="101" y="220" width="120" height="80" as="geometry" />
        </mxCell>
        <mxCell id="rpzFUIByRIfEb65WI8s4-12" value="&lt;div style=&quot;text-align: center;&quot;&gt;&lt;span style=&quot;background-color: initial; text-align: start;&quot;&gt;Registration&lt;/span&gt;&lt;span style=&quot;background-color: initial; color: rgba(0, 0, 0, 0); font-family: monospace; font-size: 0px; text-align: start;&quot;&gt;3CmxGraphModel%3E%3Croot%3E%3CmxCell%20id%3D%220%22%2F%3E%3CmxCell%20id%3D%221%22%20parent%3D%220%22%2F%3E%3CmxCell%20id%3D%222%22%20value%3D%22sign%20in%26lt%3Bspan%20style%3D%26quot%3Bcolor%3A%20rgba(0%2C%200%2C%200%2C%200)%3B%20font-family%3A%20monospace%3B%20font-size%3A%200px%3B%20text-align%3A%20start%3B%26quot%3B%26gt%3B%253CmxGraphModel%253E%253Croot%253E%253CmxCell%2520id%253D%25220%2522%252F%253E%253CmxCell%2520id%253D%25221%2522%2520parent%253D%25220%2522%252F%253E%253CmxCell%2520id%253D%25222%2522%2520value%253D%2522Actor%2522%2520style%253D%2522shape%253DumlActor%253BverticalLabelPosition%253Dbottom%253BverticalAlign%253Dtop%253Bhtml%253D1%253BoutlineConnect%253D0%253BfontSize%253D16%253B%2522%2520vertex%253D%25221%2522%2520parent%253D%25221%2522%253E%253CmxGeometry%2520x%253D%2522-158%2522%2520y%253D%2522217%2522%2520width%253D%252282%2522%2520height%253D%2522156%2522%2520as%253D%2522geometry%2522%252F%253E%253C%252FmxCell%253E%253C%252Froot%253E%253C%252FmxGraphModel%253E%26lt%3B%2Fspan%26gt%3B%22%20style%3D%22ellipse%3BwhiteSpace%3Dwrap%3Bhtml%3D1%3BfontSize%3D16%3B%22%20vertex%3D%221%22%20parent%3D%221%22%3E%3CmxGeometry%20x%3D%22101%22%20y%3D%22111%22%20width%3D%22120%22%20height%3D%2280%22%20as%3D%22geometry%22%2F%3E%3C%2FmxCell%3E%3C%2Froot%3E%3C%2FmxGraphModel%3E&lt;/span&gt;&lt;span style=&quot;background-color: initial; color: rgba(0, 0, 0, 0); font-family: monospace; font-size: 0px; text-align: start;&quot;&gt;%3CmxGraphModel%3E%3Croot%3E%3CmxCell%20id%3D%220%22%2F%3E%3CmxCell%20id%3D%221%22%20parent%3D%220%22%2F%3E%3CmxCell%20id%3D%222%22%20value%3D%22sign%20in%26lt%3Bspan%20style%3D%26quot%3Bcolor%3A%20rgba(0%2C%200%2C%200%2C%200)%3B%20font-family%3A%20monospace%3B%20font-size%3A%200px%3B%20text-align%3A%20start%3B%26quot%3B%26gt%3B%253CmxGraphModel%253E%253Croot%253E%253CmxCell%2520id%253D%25220%2522%252F%253E%253CmxCell%2520id%253D%25221%2522%2520parent%253D%25220%2522%252F%253E%253CmxCell%2520id%253D%25222%2522%2520value%253D%2522Actor%2522%2520style%253D%2522shape%253DumlActor%253BverticalLabelPosition%253Dbottom%253BverticalAlign%253Dtop%253Bhtml%253D1%253BoutlineConnect%253D0%253BfontSize%253D16%253B%2522%2520vertex%253D%25221%2522%2520parent%253D%25221%2522%253E%253CmxGeometry%2520x%253D%2522-158%2522%2520y%253D%2522217%2522%2520width%253D%252282%2522%2520height%253D%2522156%2522%2520as%253D%2522geometry%2522%252F%253E%253C%252FmxCell%253E%253C%252Froot%253E%253C%252FmxGraphModel%253E%26lt%3B%2Fspan%26gt%3B%22%20style%3D%22ellipse%3BwhiteSpace%3Dwrap%3Bhtml%3D1%3BfontSize%3D16%3B%22%20vertex%3D%221%22%20parent%3D%221%22%3E%3CmxGeometry%20x%3D%22101%22%20y%3D%22111%22%20width%3D%22120%22%20height%3D%2280%22%20as%3D%22geometry%22%2F%3E%3C%2FmxCell%3E%3C%2Froot%3E%3C%2FmxGraphModel%3E&lt;/span&gt;&lt;/div&gt;&lt;span style=&quot;color: rgba(0, 0, 0, 0); font-family: monospace; font-size: 0px; text-align: start;&quot;&gt;%3CmxGraphModel%3E%3Croot%3E%3CmxCell%20id%3D%220%22%2F%3E%3CmxCell%20id%3D%221%22%20parent%3D%220%22%2F%3E%3CmxCell%20id%3D%222%22%20value%3D%22Actor%22%20style%3D%22shape%3DumlActor%3BverticalLabelPosition%3Dbottom%3BverticalAlign%3Dtop%3Bhtml%3D1%3BoutlineConnect%3D0%3BfontSize%3D16%3B%22%20vertex%3D%221%22%20parent%3D%221%22%3E%3CmxGeometry%20x%3D%22-158%22%20y%3D%22217%22%20width%3D%2282%22%20height%3D%22156%22%20as%3D%22geometry%22%2F%3E%3C%2FmxCell%3E%3C%2Froot%3E%3C%2FmxGraphModel%3E&lt;/span&gt;&lt;span style=&quot;color: rgba(0, 0, 0, 0); font-family: monospace; font-size: 0px; text-align: start;&quot;&gt;%3CmxGraphModel%3E%3Croot%3E%3CmxCell%20id%3D%220%22%2F%3E%3CmxCell%20id%3D%221%22%20parent%3D%220%22%2F%3E%3CmxCell%20id%3D%222%22%20value%3D%22sign%20out%26lt%3Bspan%20style%3D%26quot%3Bcolor%3A%20rgba(0%2C%200%2C%200%2C%200)%3B%20font-family%3A%20monospace%3B%20font-size%3A%200px%3B%20text-align%3A%20start%3B%26quot%3B%26gt%3B%253CmxGraphModel%253E%253Croot%253E%253CmxCell%2520id%253D%25220%2522%252F%253E%253CmxCell%2520id%253D%25221%2522%2520parent%253D%25220%2522%252F%253E%253CmxCell%2520id%253D%25222%2522%2520value%253D%2522sign%2520in%2526lt%253Bspan%2520style%253D%2526quot%253Bcolor%253A%2520rgba(0%252C%25200%252C%25200%252C%25200)%253B%2520font-family%253A%2520monospace%253B%2520font-size%253A%25200px%253B%2520text-align%253A%2520start%253B%2526quot%253B%2526gt%253B%25253CmxGraphModel%25253E%25253Croot%25253E%25253CmxCell%252520id%25253D%2525220%252522%25252F%25253E%25253CmxCell%252520id%25253D%2525221%252522%252520parent%25253D%2525220%252522%25252F%25253E%25253CmxCell%252520id%25253D%2525222%252522%252520value%25253D%252522Actor%252522%252520style%25253D%252522shape%25253DumlActor%25253BverticalLabelPosition%25253Dbottom%25253BverticalAlign%25253Dtop%25253Bhtml%25253D1%25253BoutlineConnect%25253D0%25253BfontSize%25253D16%25253B%252522%252520vertex%25253D%2525221%252522%252520parent%25253D%2525221%252522%25253E%25253CmxGeometry%252520x%25253D%252522-158%252522%252520y%25253D%252522217%252522%252520width%25253D%25252282%252522%252520height%25253D%252522156%252522%252520as%25253D%252522geometry%252522%25252F%25253E%25253C%25252FmxCell%25253E%25253C%25252Froot%25253E%25253C%25252FmxGraphModel%25253E%2526lt%253B%252Fspan%2526gt%253B%2522%2520style%253D%2522ellipse%253BwhiteSpace%253Dwrap%253Bhtml%253D1%253BfontSize%253D16%253B%2522%2520vertex%253D%25221%2522%2520parent%253D%25221%2522%253E%253CmxGeometry%2520x%253D%2522101%2522%2520y%253D%2522111%2522%2520width%253D%2522120%2522%2520height%253D%252280%2522%2520as%253D%2522geometry%2522%252F%253E%253C%252FmxCell%253E%253C%252Froot%253E%253C%252FmxGraphModel%253E%26lt%3B%2Fspan%26gt%3B%26lt%3Bspan%20style%3D%26quot%3Bcolor%3A%20rgba(0%2C%200%2C%200%2C%200)%3B%20font-family%3A%20monospace%3B%20font-size%3A%200px%3B%20text-align%3A%20start%3B%26quot%3B%26gt%3B%253CmxGraphModel%253E%253Croot%253E%253CmxCell%2520id%253D%25220%2522%252F%253E%253CmxCell%2520id%253D%25221%2522%2520parent%253D%25220%2522%252F%253E%253CmxCell%2520id%253D%25222%2522%2520value%253D%2522sign%2520in%2526lt%253Bspan%2520style%253D%2526quot%253Bcolor%253A%2520rgba(0%252C%25200%252C%25200%252C%25200)%253B%2520font-family%253A%2520monospace%253B%2520font-size%253A%25200px%253B%2520text-align%253A%2520start%253B%2526quot%253B%2526gt%253B%25253CmxGraphModel%25253E%25253Croot%25253E%25253CmxCell%252520id%25253D%2525220%252522%25252F%25253E%25253CmxCell%252520id%25253D%2525221%252522%252520parent%25253D%2525220%252522%25252F%25253E%25253CmxCell%252520id%25253D%2525222%252522%252520value%25253D%252522Actor%252522%252520style%25253D%252522shape%25253DumlActor%25253BverticalLabelPosition%25253Dbottom%25253BverticalAlign%25253Dtop%25253Bhtml%25253D1%25253BoutlineConnect%25253D0%25253BfontSize%25253D16%25253B%252522%252520vertex%25253D%2525221%252522%252520parent%25253D%2525221%252522%25253E%25253CmxGeometry%252520x%25253D%252522-158%252522%252520y%25253D%252522217%252522%252520width%25253D%25252282%252522%252520height%25253D%252522156%252522%252520as%25253D%252522geometry%252522%25252F%25253E%25253C%25252FmxCell%25253E%25253C%25252Froot%25253E%25253C%25252FmxGraphModel%25253E%2526lt%253B%252Fspan%2526gt%253B%2522%2520style%253D%2522ellipse%253BwhiteSpace%253Dwrap%253Bhtml%253D1%253BfontSize%253D16%253B%2522%2520vertex%253D%25221%2522%2520parent%253D%25221%2522%253E%253CmxGeometry%2520x%253D%2522101%2522%2520y%253D%2522111%2522%2520width%253D%2522120%2522%2520height%253D%252280%2522%2520as%253D%2522geometry%2522%252F%253E%253C%252FmxCell%253E%253C%252Froot%253E%253C%252FmxGraphModel%253E%26lt%3B%2Fspan%26gt%3B%26lt%3Bbr%26gt%3B%26lt%3Bspan%20style%3D%26quot%3Bcolor%3A%20rgba(0%2C%200%2C%200%2C%200)%3B%20font-family%3A%20monospace%3B%20font-size%3A%200px%3B%20text-align%3A%20start%3B%26quot%3B%26gt%3B%253CmxGraphModel%253E%253Croot%253E%253CmxCell%2520id%253D%25220%2522%252F%253E%253CmxCell%2520id%253D%25221%2522%2520parent%253D%25220%2522%252F%253E%253CmxCell%2520id%253D%25222%2522%2520value%253D%2522Actor%2522%2520style%253D%2522shape%253DumlActor%253BverticalLabelPosition%253Dbottom%253BverticalAlign%253Dtop%253Bhtml%253D1%253BoutlineConnect%253D0%253BfontSize%253D16%253B%2522%2520vertex%253D%25221%2522%2520parent%253D%25221%2522%253E%253CmxGeometry%2520x%253D%2522-158%2522%2520y%253D%2522217%2522%2520width%253D%252282%2522%2520height%253D%2522156%2522%2520as%253D%2522geometry%2522%252F%253E%253C%252FmxCell%253E%253C%252Froot%253E%253C%252FmxGraphModel%253E%26lt%3B%2Fspan%26gt%3B%22%20style%3D%22ellipse%3BwhiteSpace%3Dwrap%3Bhtml%3D1%3BfontSize%3D16%3B%22%20vertex%3D%221%22%20parent%3D%221%22%3E%3CmxGeometry%20x%3D%22101%22%20y%3D%22231%22%20width%3D%22120%22%20height%3D%2280%22%20as%3D%22geometry%22%2F%3E%3C%2FmxCell%3E%3C%2Froot%3E%3C%2FmxGraphModel%3E&lt;/span&gt;" style="ellipse;whiteSpace=wrap;html=1;fontSize=16;" parent="1" vertex="1">
          <mxGeometry x="101" y="327" width="120" height="80" as="geometry" />
        </mxCell>
        <mxCell id="rpzFUIByRIfEb65WI8s4-14" value="Fitness center" style="text;strokeColor=none;fillColor=none;html=1;align=center;verticalAlign=middle;whiteSpace=wrap;rounded=0;fontSize=16;" parent="1" vertex="1">
          <mxGeometry x="585" y="-17" width="110.5" height="30" as="geometry" />
        </mxCell>
        <mxCell id="rpzFUIByRIfEb65WI8s4-17" value="Verification" style="ellipse;whiteSpace=wrap;html=1;fontSize=16;" parent="1" vertex="1">
          <mxGeometry x="277" y="114" width="120" height="80" as="geometry" />
        </mxCell>
        <mxCell id="rpzFUIByRIfEb65WI8s4-18" value="Display error" style="ellipse;whiteSpace=wrap;html=1;fontSize=16;" parent="1" vertex="1">
          <mxGeometry x="753" y="526" width="120" height="80" as="geometry" />
        </mxCell>
        <mxCell id="rpzFUIByRIfEb65WI8s4-22" value="&amp;lt;&amp;lt;include&amp;gt;&amp;gt;" style="html=1;verticalAlign=bottom;endArrow=open;dashed=1;endSize=8;rounded=0;fontSize=12;sourcePerimeterSpacing=8;targetPerimeterSpacing=8;curved=1;entryX=0;entryY=0.5;entryDx=0;entryDy=0;" parent="1" target="rpzFUIByRIfEb65WI8s4-17" edge="1">
          <mxGeometry relative="1" as="geometry">
            <mxPoint x="221" y="155" as="sourcePoint" />
            <mxPoint x="141" y="155" as="targetPoint" />
          </mxGeometry>
        </mxCell>
        <mxCell id="rpzFUIByRIfEb65WI8s4-23" value="&amp;lt;&amp;lt;extend&amp;gt;&amp;gt;" style="html=1;verticalAlign=bottom;endArrow=open;dashed=1;endSize=8;rounded=0;fontSize=12;sourcePerimeterSpacing=8;targetPerimeterSpacing=8;curved=1;entryX=1;entryY=1;entryDx=0;entryDy=0;exitX=0;exitY=0.5;exitDx=0;exitDy=0;" parent="1" source="rpzFUIByRIfEb65WI8s4-18" target="rpzFUIByRIfEb65WI8s4-10" edge="1">
          <mxGeometry relative="1" as="geometry">
            <mxPoint x="311" y="351" as="sourcePoint" />
            <mxPoint x="231" y="351" as="targetPoint" />
          </mxGeometry>
        </mxCell>
        <mxCell id="rpzFUIByRIfEb65WI8s4-24" value="&amp;lt;&amp;lt;extend&amp;gt;&amp;gt;" style="html=1;verticalAlign=bottom;endArrow=open;dashed=1;endSize=8;rounded=0;fontSize=12;sourcePerimeterSpacing=8;targetPerimeterSpacing=8;curved=1;entryX=1;entryY=0.5;entryDx=0;entryDy=0;exitX=0;exitY=0.5;exitDx=0;exitDy=0;" parent="1" source="rpzFUIByRIfEb65WI8s4-18" target="rpzFUIByRIfEb65WI8s4-12" edge="1">
          <mxGeometry relative="1" as="geometry">
            <mxPoint x="312.57" y="353.72" as="sourcePoint" />
            <mxPoint x="204.99640687119273" y="182.0042712474619" as="targetPoint" />
          </mxGeometry>
        </mxCell>
        <mxCell id="rpzFUIByRIfEb65WI8s4-25" value="&lt;div style=&quot;text-align: start; font-size: 13px;&quot;&gt;Making, sending&amp;nbsp;&lt;/div&gt;&lt;div style=&quot;text-align: start; font-size: 13px;&quot;&gt;&lt;span style=&quot;white-space: pre;&quot;&gt;	&lt;/span&gt;order&lt;/div&gt;" style="ellipse;whiteSpace=wrap;html=1;fontSize=16;" parent="1" vertex="1">
          <mxGeometry x="101" y="535" width="120" height="80" as="geometry" />
        </mxCell>
        <mxCell id="rpzFUIByRIfEb65WI8s4-27" value="Filling out the order form" style="ellipse;whiteSpace=wrap;html=1;fontSize=16;" parent="1" vertex="1">
          <mxGeometry x="512" y="538.75" width="114" height="72.5" as="geometry" />
        </mxCell>
        <mxCell id="rpzFUIByRIfEb65WI8s4-33" value="&amp;lt;&amp;lt;include&amp;gt;&amp;gt;" style="html=1;verticalAlign=bottom;endArrow=open;dashed=1;endSize=8;rounded=0;fontSize=12;sourcePerimeterSpacing=8;targetPerimeterSpacing=8;curved=1;entryX=0;entryY=0.5;entryDx=0;entryDy=0;exitX=1;exitY=0.5;exitDx=0;exitDy=0;" parent="1" target="rpzFUIByRIfEb65WI8s4-27" edge="1" source="rpzFUIByRIfEb65WI8s4-25">
          <mxGeometry relative="1" as="geometry">
            <mxPoint x="220.9999999999999" y="629" as="sourcePoint" />
            <mxPoint x="311" y="674" as="targetPoint" />
          </mxGeometry>
        </mxCell>
        <mxCell id="rpzFUIByRIfEb65WI8s4-34" value="&lt;div style=&quot;text-align: start; font-size: 12px;&quot;&gt;&lt;font style=&quot;font-size: 12px;&quot;&gt;&lt;span style=&quot;white-space: pre;&quot;&gt;	&lt;/span&gt;Modification of &lt;span style=&quot;white-space: pre;&quot;&gt;	&lt;/span&gt;the sent order&lt;/font&gt;&lt;/div&gt;" style="ellipse;whiteSpace=wrap;html=1;fontSize=16;" parent="1" vertex="1">
          <mxGeometry x="101" y="651" width="120" height="80" as="geometry" />
        </mxCell>
        <mxCell id="rpzFUIByRIfEb65WI8s4-35" value="&lt;div style=&quot;text-align: start;&quot;&gt;&lt;font style=&quot;font-size: 11px;&quot;&gt;Deleting the sent order&lt;/font&gt;&lt;/div&gt;" style="ellipse;whiteSpace=wrap;html=1;fontSize=16;" parent="1" vertex="1">
          <mxGeometry x="102" y="770" width="118" height="79" as="geometry" />
        </mxCell>
        <mxCell id="rpzFUIByRIfEb65WI8s4-38" value="&lt;div style=&quot;text-align: center;&quot;&gt;Enter order id&lt;/div&gt;" style="ellipse;whiteSpace=wrap;html=1;fontSize=16;" parent="1" vertex="1">
          <mxGeometry x="373" y="714" width="120" height="80" as="geometry" />
        </mxCell>
        <mxCell id="rpzFUIByRIfEb65WI8s4-39" value="&amp;lt;&amp;lt;include&amp;gt;&amp;gt;" style="html=1;verticalAlign=bottom;endArrow=open;dashed=1;endSize=8;rounded=0;fontSize=12;sourcePerimeterSpacing=8;targetPerimeterSpacing=8;curved=1;entryX=0;entryY=0.5;entryDx=0;entryDy=0;exitX=1;exitY=0.5;exitDx=0;exitDy=0;" parent="1" source="rpzFUIByRIfEb65WI8s4-34" target="rpzFUIByRIfEb65WI8s4-38" edge="1">
          <mxGeometry relative="1" as="geometry">
            <mxPoint x="232" y="751.47" as="sourcePoint" />
            <mxPoint x="288.0000000000023" y="750.47" as="targetPoint" />
          </mxGeometry>
        </mxCell>
        <mxCell id="rpzFUIByRIfEb65WI8s4-40" value="&amp;lt;&amp;lt;include&amp;gt;&amp;gt;" style="html=1;verticalAlign=bottom;endArrow=open;dashed=1;endSize=8;rounded=0;fontSize=12;sourcePerimeterSpacing=8;targetPerimeterSpacing=8;curved=1;entryX=0;entryY=0.5;entryDx=0;entryDy=0;exitX=1;exitY=0.5;exitDx=0;exitDy=0;" parent="1" source="rpzFUIByRIfEb65WI8s4-35" target="rpzFUIByRIfEb65WI8s4-38" edge="1">
          <mxGeometry relative="1" as="geometry">
            <mxPoint x="220.99999999999943" y="869" as="sourcePoint" />
            <mxPoint x="277" y="925.0000000000002" as="targetPoint" />
          </mxGeometry>
        </mxCell>
        <mxCell id="h0mzsO0h4rfy2fg7cK-p-6" value="Work with item to warehouse" style="ellipse;whiteSpace=wrap;html=1;fontSize=16;" parent="1" vertex="1">
          <mxGeometry x="840" y="202" width="120" height="80" as="geometry" />
        </mxCell>
        <mxCell id="h0mzsO0h4rfy2fg7cK-p-7" value="Work whith coaches" style="ellipse;whiteSpace=wrap;html=1;fontSize=16;" parent="1" vertex="1">
          <mxGeometry x="829" y="308" width="137" height="88" as="geometry" />
        </mxCell>
        <mxCell id="h0mzsO0h4rfy2fg7cK-p-8" value="Сustomer account management" style="ellipse;whiteSpace=wrap;html=1;fontSize=16;" parent="1" vertex="1">
          <mxGeometry x="842" y="431" width="120" height="80" as="geometry" />
        </mxCell>
        <mxCell id="h0mzsO0h4rfy2fg7cK-p-15" value="Add, remove" style="ellipse;whiteSpace=wrap;html=1;fontSize=16;" parent="1" vertex="1">
          <mxGeometry x="550" y="114" width="120" height="80" as="geometry" />
        </mxCell>
        <mxCell id="h0mzsO0h4rfy2fg7cK-p-17" value="Search" style="ellipse;whiteSpace=wrap;html=1;fontSize=16;" parent="1" vertex="1">
          <mxGeometry x="545" y="207" width="120" height="80" as="geometry" />
        </mxCell>
        <mxCell id="h0mzsO0h4rfy2fg7cK-p-19" value="Filtr" style="ellipse;whiteSpace=wrap;html=1;fontSize=16;" parent="1" vertex="1">
          <mxGeometry x="545" y="305" width="120" height="80" as="geometry" />
        </mxCell>
        <mxCell id="h0mzsO0h4rfy2fg7cK-p-22" value="&amp;lt;&amp;lt;extend&amp;gt;&amp;gt;" style="html=1;verticalAlign=bottom;endArrow=open;dashed=1;endSize=8;rounded=0;fontSize=12;sourcePerimeterSpacing=8;targetPerimeterSpacing=8;curved=1;exitX=1;exitY=0.5;exitDx=0;exitDy=0;" parent="1" source="h0mzsO0h4rfy2fg7cK-p-15" edge="1">
          <mxGeometry relative="1" as="geometry">
            <mxPoint x="518" y="267" as="sourcePoint" />
            <mxPoint x="744" y="304" as="targetPoint" />
          </mxGeometry>
        </mxCell>
        <mxCell id="h0mzsO0h4rfy2fg7cK-p-23" value="" style="endArrow=none;html=1;rounded=0;entryX=0;entryY=0.5;entryDx=0;entryDy=0;" parent="1" target="h0mzsO0h4rfy2fg7cK-p-6" edge="1">
          <mxGeometry width="50" height="50" relative="1" as="geometry">
            <mxPoint x="742" y="301" as="sourcePoint" />
            <mxPoint x="776" y="261" as="targetPoint" />
          </mxGeometry>
        </mxCell>
        <mxCell id="h0mzsO0h4rfy2fg7cK-p-24" value="" style="endArrow=none;html=1;rounded=0;exitX=0;exitY=0.5;exitDx=0;exitDy=0;" parent="1" source="h0mzsO0h4rfy2fg7cK-p-7" edge="1">
          <mxGeometry width="50" height="50" relative="1" as="geometry">
            <mxPoint x="724" y="330" as="sourcePoint" />
            <mxPoint x="742" y="301" as="targetPoint" />
          </mxGeometry>
        </mxCell>
        <mxCell id="h0mzsO0h4rfy2fg7cK-p-25" value="" style="endArrow=none;html=1;rounded=0;exitX=0;exitY=0.5;exitDx=0;exitDy=0;" parent="1" source="h0mzsO0h4rfy2fg7cK-p-8" edge="1">
          <mxGeometry width="50" height="50" relative="1" as="geometry">
            <mxPoint x="792" y="448" as="sourcePoint" />
            <mxPoint x="743" y="302" as="targetPoint" />
          </mxGeometry>
        </mxCell>
        <mxCell id="h0mzsO0h4rfy2fg7cK-p-26" value="&amp;lt;&amp;lt;extend&amp;gt;&amp;gt;" style="html=1;verticalAlign=bottom;endArrow=open;dashed=1;endSize=8;rounded=0;fontSize=12;sourcePerimeterSpacing=8;targetPerimeterSpacing=8;curved=1;exitX=1;exitY=0.5;exitDx=0;exitDy=0;" parent="1" edge="1">
          <mxGeometry relative="1" as="geometry">
            <mxPoint x="665" y="248" as="sourcePoint" />
            <mxPoint x="745" y="306" as="targetPoint" />
          </mxGeometry>
        </mxCell>
        <mxCell id="h0mzsO0h4rfy2fg7cK-p-27" value="&amp;lt;&amp;lt;extend&amp;gt;&amp;gt;" style="html=1;verticalAlign=bottom;endArrow=open;dashed=1;endSize=8;rounded=0;fontSize=12;sourcePerimeterSpacing=8;targetPerimeterSpacing=8;curved=1;exitX=1;exitY=0.5;exitDx=0;exitDy=0;" parent="1" source="h0mzsO0h4rfy2fg7cK-p-19" edge="1">
          <mxGeometry relative="1" as="geometry">
            <mxPoint x="675" y="258" as="sourcePoint" />
            <mxPoint x="737" y="306" as="targetPoint" />
          </mxGeometry>
        </mxCell>
        <mxCell id="wqfVcWy9UaqfOOaMVZAh-1" value="&lt;div style=&quot;text-align: center;&quot;&gt;&lt;div style=&quot;border-color: var(--border-color);&quot;&gt;&lt;font style=&quot;font-size: 10px;&quot;&gt;View available abonements, products and couches&lt;/font&gt;&lt;span style=&quot;border-color: var(--border-color); background-color: initial; color: rgba(0, 0, 0, 0); font-family: monospace; font-size: 0px; text-align: start;&quot;&gt;%3CmxGraphModel%3E%3Croot%3E%3CmxCell%20id%3D%220%22%2F%3E%3CmxCell%20id%3D%221%22%20parent%3D%220%22%2F%3E%3CmxCell%20id%3D%222%22%20value%3D%22sign%20in%26lt%3Bspan%20style%3D%26quot%3Bcolor%3A%20rgba(0%2C%200%2C%200%2C%200)%3B%20font-family%3A%20monospace%3B%20font-size%3A%200px%3B%20text-align%3A%20start%3B%26quot%3B%26gt%3B%253CmxGraphModel%253E%253Croot%253E%253CmxCell%2520id%253D%25220%2522%252F%253E%253CmxCell%2520id%253D%25221%2522%2520parent%253D%25220%2522%252F%253E%253CmxCell%2520id%253D%25222%2522%2520value%253D%2522Actor%2522%2520style%253D%2522shape%253DumlActor%253BverticalLabelPosition%253Dbottom%253BverticalAlign%253Dtop%253Bhtml%253D1%253BoutlineConnect%253D0%253BfontSize%253D16%253B%2522%2520vertex%253D%25221%2522%2520parent%253D%25221%2522%253E%253CmxGeometry%2520x%253D%2522-158%2522%2520y%253D%2522217%2522%2520width%253D%252282%2522%2520height%253D%2522156%2522%2520as%253D%2522geometry%2522%252F%253E%253C%252FmxCell%253E%253C%252Froot%253E%253C%252FmxGraphModel%253E%26lt%3B%2Fspan%26gt%3B%22%20style%3D%22ellipse%3BwhiteSpace%3Dwrap%3Bhtml%3D1%3BfontSize%3D16%3B%22%20vertex%3D%221%22%20parent%3D%221%22%3E%3CmxGeometry%20x%3D%22101%22%20y%3D%22111%22%20width%3D%22120%22%20height%3D%2280%22%20as%3D%22geometry%22%2F%3E%3C%2FmxCell%3E%3C%2Froot%3E%3C%2FmxGraphModel%3E&lt;/span&gt;&lt;span style=&quot;border-color: var(--border-color); background-color: initial; color: rgba(0, 0, 0, 0); font-family: monospace; font-size: 0px; text-align: start;&quot;&gt;%3CmxGraphModel%3E%3Croot%3E%3CmxCell%20id%3D%220%22%2F%3E%3CmxCell%20id%3D%221%22%20parent%3D%220%22%2F%3E%3CmxCell%20id%3D%222%22%20value%3D%22sign%20in%26lt%3Bspan%20style%3D%26quot%3Bcolor%3A%20rgba(0%2C%200%2C%200%2C%200)%3B%20font-family%3A%20monospace%3B%20font-size%3A%200px%3B%20text-align%3A%20start%3B%26quot%3B%26gt%3B%253CmxGraphModel%253E%253Croot%253E%253CmxCell%2520id%253D%25220%2522%252F%253E%253CmxCell%2520id%253D%25221%2522%2520parent%253D%25220%2522%252F%253E%253CmxCell%2520id%253D%25222%2522%2520value%253D%2522Actor%2522%2520style%253D%2522shape%253DumlActor%253BverticalLabelPosition%253Dbottom%253BverticalAlign%253Dtop%253Bhtml%253D1%253BoutlineConnect%253D0%253BfontSize%253D16%253B%2522%2520vertex%253D%25221%2522%2520parent%253D%25221%2522%253E%253CmxGeometry%2520x%253D%2522-158%2522%2520y%253D%2522217%2522%2520width%253D%252282%2522%2520height%253D%2522156%2522%2520as%253D%2522geometry%2522%252F%253E%253C%252FmxCell%253E%253C%252Froot%253E%253C%252FmxGraphModel%253E%26lt%3B%2Fspan%26gt%3B%22%20style%3D%22ellipse%3BwhiteSpace%3Dwrap%3Bhtml%3D1%3BfontSize%3D16%3B%22%20vertex%3D%221%22%20parent%3D%221%22%3E%3CmxGeometry%20x%3D%22101%22%20y%3D%22111%22%20width%3D%22120%22%20height%3D%2280%22%20as%3D%22geometry%22%2F%3E%3C%2FmxCell%3E%3C%2Froot%3E%3C%2FmxGraphModel%3E&lt;/span&gt;&lt;/div&gt;&lt;span style=&quot;border-color: var(--border-color); color: rgba(0, 0, 0, 0); font-family: monospace; font-size: 0px; text-align: start;&quot;&gt;%3CmxGraphModel%3E%3Croot%3E%3CmxCell%20id%3D%220%22%2F%3E%3CmxCell%20id%3D%221%22%20parent%3D%220%22%2F%3E%3CmxCell%20id%3D%222%22%20value%3D%22Actor%22%20style%3D%22shape%3DumlActor%3BverticalLabelPosition%3Dbottom%3BverticalAlign%3Dtop%3Bhtml%3D1%3BoutlineConnect%3D0%3BfontSize%3D16%3B%22%20vertex%3D%221%22%20parent%3D%221%22%3E%3CmxGeometry%20x%3D%22-158%22%20y%3D%22217%22%20width%3D%2282%22%20height%3D%22156%22%20as%3D%22geometry%22%2F%3E%3C%2FmxCell%3E%3C%2Froot%3E%3C%2FmxGraphModel%3E&lt;/span&gt;&lt;br&gt;&lt;/div&gt;" style="ellipse;whiteSpace=wrap;html=1;fontSize=16;" vertex="1" parent="1">
          <mxGeometry x="101" y="435" width="120" height="80" as="geometry" />
        </mxCell>
        <mxCell id="wqfVcWy9UaqfOOaMVZAh-10" value="1" style="ellipse;whiteSpace=wrap;html=1;aspect=fixed;" vertex="1" parent="1">
          <mxGeometry x="364" y="668" width="17" height="17" as="geometry" />
        </mxCell>
        <mxCell id="wqfVcWy9UaqfOOaMVZAh-14" value="1" style="ellipse;whiteSpace=wrap;html=1;aspect=fixed;" vertex="1" parent="1">
          <mxGeometry x="233" y="743" width="17" height="17" as="geometry" />
        </mxCell>
        <mxCell id="wqfVcWy9UaqfOOaMVZAh-15" value="&amp;lt;&amp;lt;extend&amp;gt;&amp;gt;" style="html=1;verticalAlign=bottom;endArrow=open;dashed=1;endSize=8;rounded=0;fontSize=12;sourcePerimeterSpacing=8;targetPerimeterSpacing=8;curved=1;entryX=1;entryY=0.5;entryDx=0;entryDy=0;exitX=0.5;exitY=0;exitDx=0;exitDy=0;" edge="1" parent="1" source="wqfVcWy9UaqfOOaMVZAh-14" target="rpzFUIByRIfEb65WI8s4-34">
          <mxGeometry relative="1" as="geometry">
            <mxPoint x="557" y="899" as="sourcePoint" />
            <mxPoint x="40" y="709" as="targetPoint" />
          </mxGeometry>
        </mxCell>
        <mxCell id="wqfVcWy9UaqfOOaMVZAh-16" value="&amp;lt;&amp;lt;extend&amp;gt;&amp;gt;" style="html=1;verticalAlign=bottom;endArrow=open;dashed=1;endSize=8;rounded=0;fontSize=12;sourcePerimeterSpacing=8;targetPerimeterSpacing=8;curved=1;entryX=1;entryY=0.5;entryDx=0;entryDy=0;exitX=0;exitY=1;exitDx=0;exitDy=0;" edge="1" parent="1" source="wqfVcWy9UaqfOOaMVZAh-14" target="rpzFUIByRIfEb65WI8s4-35">
          <mxGeometry relative="1" as="geometry">
            <mxPoint x="758" y="577" as="sourcePoint" />
            <mxPoint x="241" y="387" as="targetPoint" />
          </mxGeometry>
        </mxCell>
        <mxCell id="wqfVcWy9UaqfOOaMVZAh-17" value="&amp;lt;&amp;lt;extend&amp;gt;&amp;gt;" style="html=1;verticalAlign=bottom;endArrow=open;dashed=1;endSize=8;rounded=0;fontSize=12;sourcePerimeterSpacing=8;targetPerimeterSpacing=8;curved=1;entryX=1;entryY=0.5;entryDx=0;entryDy=0;exitX=0;exitY=1;exitDx=0;exitDy=0;" edge="1" parent="1" source="rpzFUIByRIfEb65WI8s4-18" target="wqfVcWy9UaqfOOaMVZAh-10">
          <mxGeometry relative="1" as="geometry">
            <mxPoint x="990" y="853" as="sourcePoint" />
            <mxPoint x="473" y="663" as="targetPoint" />
          </mxGeometry>
        </mxCell>
        <mxCell id="wqfVcWy9UaqfOOaMVZAh-18" value="New Client" style="shape=umlActor;verticalLabelPosition=bottom;verticalAlign=top;html=1;outlineConnect=0;fontSize=16;" vertex="1" parent="1">
          <mxGeometry x="-312" y="58" width="82" height="156" as="geometry" />
        </mxCell>
        <mxCell id="wqfVcWy9UaqfOOaMVZAh-22" value="" style="endArrow=open;endFill=1;endSize=12;html=1;rounded=0;exitX=1;exitY=0.3333333333333333;exitDx=0;exitDy=0;exitPerimeter=0;entryX=0;entryY=0.5;entryDx=0;entryDy=0;" edge="1" parent="1" source="wqfVcWy9UaqfOOaMVZAh-18" target="rpzFUIByRIfEb65WI8s4-10">
          <mxGeometry width="160" relative="1" as="geometry">
            <mxPoint x="-185" y="400" as="sourcePoint" />
            <mxPoint x="-25" y="400" as="targetPoint" />
          </mxGeometry>
        </mxCell>
        <mxCell id="wqfVcWy9UaqfOOaMVZAh-23" value="2" style="ellipse;whiteSpace=wrap;html=1;aspect=fixed;" vertex="1" parent="1">
          <mxGeometry x="-49" y="270" width="17" height="17" as="geometry" />
        </mxCell>
        <mxCell id="wqfVcWy9UaqfOOaMVZAh-24" value="2" style="ellipse;whiteSpace=wrap;html=1;aspect=fixed;" vertex="1" parent="1">
          <mxGeometry x="32" y="347" width="17" height="17" as="geometry" />
        </mxCell>
        <mxCell id="wqfVcWy9UaqfOOaMVZAh-25" value="" style="endArrow=open;endFill=1;endSize=12;html=1;rounded=0;exitX=1;exitY=0.3333333333333333;exitDx=0;exitDy=0;exitPerimeter=0;entryX=0;entryY=0;entryDx=0;entryDy=0;" edge="1" parent="1" source="wqfVcWy9UaqfOOaMVZAh-18" target="wqfVcWy9UaqfOOaMVZAh-23">
          <mxGeometry width="160" relative="1" as="geometry">
            <mxPoint x="-237" y="173" as="sourcePoint" />
            <mxPoint x="94" y="214" as="targetPoint" />
          </mxGeometry>
        </mxCell>
        <mxCell id="wqfVcWy9UaqfOOaMVZAh-26" value="" style="endArrow=open;endFill=1;endSize=12;html=1;rounded=0;exitX=1;exitY=1;exitDx=0;exitDy=0;entryX=0;entryY=0.5;entryDx=0;entryDy=0;" edge="1" parent="1" source="wqfVcWy9UaqfOOaMVZAh-24" target="rpzFUIByRIfEb65WI8s4-12">
          <mxGeometry width="160" relative="1" as="geometry">
            <mxPoint x="-182" y="287" as="sourcePoint" />
            <mxPoint x="1" y="449" as="targetPoint" />
          </mxGeometry>
        </mxCell>
      </root>
    </mxGraphModel>
  </diagram>
</mxfile>
